<svg width="1620" height="432" viewBox="0 0 1620 432" fill="none" xmlns="http://www.w3.org/2000/svg">
<g filter="url(#filter0_d_13_19)">
<rect x="87" y="8" width="1446" height="366" rx="32" fill="#6C5DD3"/>
</g>
<rect y="8" width="1620" height="366" rx="32" fill="#6C5DD3"/>
<mask id="mask0_13_19" style="mask-type:alpha" maskUnits="userSpaceOnUse" x="0" y="8" width="1620" height="366">
<rect y="8" width="1620" height="366" rx="32" fill="#6C5DD3"/>
</mask>
<g mask="url(#mask0_13_19)">
<path d="M-83.7119 386.332L58.8624 425.138C77.1653 430.119 96.0508 425.135 109.379 411.807C122.708 398.478 127.692 379.593 122.711 361.29L83.904 218.716C78.9196 200.396 65.0018 186.505 46.6692 181.554C28.4029 176.622 9.55389 181.617 -3.74482 194.915L-107.512 298.683C-120.811 311.981 -125.805 330.83 -120.874 349.097C-118.395 358.28 -113.67 366.353 -107.268 372.755C-100.892 379.131 -92.855 383.846 -83.7119 386.332Z" fill="#6153BB"/>
<path d="M-114.285 391.727L28.2888 430.534C46.5917 435.515 65.4771 430.531 78.8056 417.202C92.134 403.874 97.1182 384.988 92.1371 366.686L53.3304 224.111C48.3459 205.792 34.4281 191.9 16.0955 186.949C-2.17076 182.018 -21.0198 187.012 -34.3185 200.311L-138.086 304.078C-151.385 317.377 -156.379 336.226 -151.448 354.492C-148.969 363.675 -144.244 371.749 -137.841 378.151C-131.466 384.527 -123.429 389.242 -114.285 391.727Z" fill="#FFAB7C"/>
<path d="M1901.9 39.0606L1786.51 -162.647C1771.69 -188.541 1745.15 -204 1715.5 -204C1685.86 -204 1659.31 -188.541 1644.5 -162.647L1529.1 39.0607C1514.27 64.9762 1514.3 95.9019 1529.18 121.795C1544.01 147.593 1570.53 163 1600.1 163L1830.9 163C1860.48 163 1886.99 147.593 1901.82 121.795C1909.28 108.826 1913 94.5939 1913 80.354C1913 66.1733 1909.31 51.9925 1901.9 39.0606Z" fill="#0D1CA9" fill-opacity="0.34"/>
<path d="M1941.9 67.0606L1826.51 -134.647C1811.69 -160.541 1785.15 -176 1755.5 -176C1725.86 -176 1699.31 -160.541 1684.5 -134.647L1569.1 67.0607C1554.27 92.9762 1554.3 123.902 1569.18 149.795C1584.01 175.593 1610.53 191 1640.1 191L1870.9 191C1900.48 191 1926.99 175.593 1941.82 149.795C1949.28 136.826 1953 122.594 1953 108.354C1953 94.1733 1949.31 79.9925 1941.9 67.0606Z" fill="#FFAB7C"/>
<path d="M1572.11 323.302L1595.63 336.459C1598.65 338.148 1600.45 341.175 1600.45 344.555C1600.45 347.934 1598.65 350.961 1595.63 352.65L1572.11 365.807C1569.09 367.498 1565.49 367.495 1562.47 365.798C1559.46 364.107 1557.67 361.084 1557.67 357.712L1557.67 331.397C1557.67 328.025 1559.46 325.002 1562.47 323.311C1563.98 322.461 1565.64 322.036 1567.3 322.036C1568.95 322.036 1570.61 322.458 1572.11 323.302Z" fill="#5A49CA"/>
<path d="M1535.34 323.302L1511.82 336.459C1508.8 338.148 1507 341.175 1507 344.555C1507 347.934 1508.8 350.961 1511.82 352.65L1535.34 365.807C1538.36 367.498 1541.96 367.495 1544.98 365.798C1547.99 364.107 1549.78 361.084 1549.78 357.712V331.397C1549.78 328.025 1547.99 325.002 1544.98 323.311C1543.47 322.461 1541.81 322.036 1540.15 322.036C1538.5 322.036 1536.84 322.458 1535.34 323.302Z" fill="#5A49CA"/>
<path d="M1673.45 323.302L1696.96 336.459C1699.98 338.148 1701.78 341.175 1701.78 344.555C1701.78 347.934 1699.98 350.961 1696.96 352.65L1673.45 365.807C1670.43 367.498 1666.82 367.495 1663.8 365.798C1660.79 364.107 1659 361.084 1659 357.712V331.397C1659 328.025 1660.79 325.002 1663.8 323.311C1665.31 322.461 1666.97 322.036 1668.63 322.036C1670.29 322.036 1671.94 322.458 1673.45 323.302Z" fill="#5A49CA"/>
<path d="M1636.67 323.302L1613.15 336.459C1610.13 338.148 1608.33 341.175 1608.33 344.555C1608.33 347.934 1610.13 350.961 1613.15 352.65L1636.67 365.807C1639.69 367.498 1643.29 367.495 1646.31 365.798C1649.32 364.107 1651.12 361.084 1651.12 357.712V331.397C1651.12 328.025 1649.32 325.002 1646.31 323.311C1644.8 322.461 1643.14 322.036 1641.48 322.036C1639.83 322.036 1638.18 322.458 1636.67 323.302Z" fill="#5A49CA"/>
<path d="M1586 320.771L1562.49 307.614C1559.47 305.925 1557.67 302.898 1557.67 299.518C1557.67 296.138 1559.47 293.112 1562.49 291.423L1586 278.266C1589.02 276.575 1592.63 276.578 1595.65 278.275C1598.65 279.966 1600.45 282.989 1600.45 286.361V312.675C1600.45 316.048 1598.65 319.071 1595.65 320.762C1594.14 321.612 1592.48 322.036 1590.82 322.036C1589.16 322.036 1587.51 321.615 1586 320.771Z" fill="#5A49CA"/>
<path d="M1586 409.718L1562.49 396.561C1559.47 394.871 1557.67 391.845 1557.67 388.465C1557.67 385.085 1559.47 382.059 1562.49 380.369L1586 367.212C1589.02 365.521 1592.63 365.525 1595.65 367.222C1598.65 368.912 1600.45 371.935 1600.45 375.308L1600.45 401.622C1600.45 404.994 1598.65 408.018 1595.65 409.708C1594.14 410.558 1592.48 410.983 1590.82 410.983C1589.16 410.983 1587.51 410.562 1586 409.718Z" fill="#5A49CA"/>
<path d="M1622.78 320.771L1646.3 307.614C1649.31 305.925 1651.12 302.898 1651.12 299.518C1651.12 296.138 1649.31 293.112 1646.3 291.423L1622.78 278.266C1619.76 276.575 1616.15 276.578 1613.14 278.275C1610.13 279.966 1608.33 282.989 1608.33 286.361V312.675C1608.33 316.048 1610.13 319.071 1613.14 320.762C1614.65 321.612 1616.31 322.036 1617.97 322.036C1619.62 322.036 1621.27 321.615 1622.78 320.771Z" fill="#5A49CA"/>
<path d="M1622.78 409.718L1646.3 396.561C1649.31 394.871 1651.12 391.845 1651.12 388.465C1651.12 385.085 1649.31 382.059 1646.3 380.369L1622.78 367.212C1619.76 365.521 1616.15 365.525 1613.14 367.222C1610.13 368.912 1608.33 371.935 1608.33 375.308V401.622C1608.33 404.994 1610.13 408.018 1613.14 409.708C1614.65 410.558 1616.31 410.983 1617.97 410.983C1619.62 410.983 1621.27 410.562 1622.78 409.718Z" fill="#5A49CA"/>
<path d="M403.829 -292.097L340.981 -178.737C332.912 -164.185 318.456 -155.497 302.311 -155.497C286.166 -155.497 271.709 -164.185 263.64 -178.737L200.793 -292.097C192.716 -306.661 192.732 -324.042 200.837 -338.594C208.913 -353.092 223.354 -361.751 239.463 -361.751L365.158 -361.751C381.267 -361.751 395.708 -353.092 403.785 -338.594C407.845 -331.305 409.873 -323.307 409.873 -315.304C409.873 -307.334 407.861 -299.365 403.829 -292.097Z" fill="#7262DB"/>
<path d="M403.829 -469.4L340.981 -582.76C332.912 -597.312 318.456 -606 302.311 -606C286.166 -606 271.709 -597.312 263.64 -582.76L200.793 -469.4C192.716 -454.835 192.732 -437.455 200.837 -422.903C208.913 -408.405 223.354 -399.746 239.463 -399.746L365.158 -399.746C381.267 -399.746 395.708 -408.405 403.785 -422.903C407.845 -430.191 409.873 -438.19 409.873 -446.193C409.873 -454.162 407.861 -462.132 403.829 -469.4Z" fill="#7262DB"/>
<path d="M403.829 196.4L340.981 309.76C332.912 324.312 318.456 333 302.311 333C286.166 333 271.709 324.312 263.64 309.76L200.793 196.4C192.716 181.835 192.732 164.455 200.837 149.903C208.913 135.405 223.354 126.746 239.463 126.746L365.158 126.746C381.267 126.746 395.708 135.405 403.785 149.903C407.845 157.191 409.873 165.19 409.873 173.193C409.873 181.162 407.861 189.132 403.829 196.4Z" fill="#7262DB"/>
<path d="M403.829 19.0972L340.981 -94.263C332.912 -108.815 318.456 -117.503 302.311 -117.503C286.166 -117.503 271.709 -108.815 263.64 -94.263L200.793 19.0971C192.716 33.6617 192.732 51.042 200.837 65.5941C208.913 80.0922 223.354 88.7512 239.463 88.7512L365.158 88.7512C381.267 88.7512 395.708 80.0922 403.785 65.5941C407.845 58.3056 409.873 50.3069 409.873 42.3041C409.873 34.3345 407.861 26.3649 403.829 19.0972Z" fill="#7262DB"/>
<path d="M415.918 -225.151L478.766 -338.511C486.834 -353.063 501.291 -361.751 517.436 -361.751C533.581 -361.751 548.038 -353.063 556.106 -338.511L618.954 -225.151C627.031 -210.586 627.015 -193.206 618.91 -178.654C610.834 -164.156 596.393 -155.497 580.284 -155.497L454.588 -155.497C438.479 -155.497 424.038 -164.156 415.962 -178.654C411.902 -185.942 409.874 -193.941 409.874 -201.944C409.874 -209.913 411.886 -217.883 415.918 -225.151Z" fill="#7262DB"/>
<path d="M-8.95558 -225.151L53.8921 -338.511C61.9606 -353.063 76.4175 -361.751 92.5624 -361.751C108.707 -361.751 123.164 -353.063 131.233 -338.511L194.08 -225.151C202.157 -210.586 202.141 -193.206 194.036 -178.654C185.96 -164.156 171.519 -155.497 155.41 -155.497L29.7147 -155.497C13.6058 -155.497 -0.835102 -164.156 -8.91158 -178.654C-12.9718 -185.942 -15 -193.941 -15 -201.944C-15 -209.913 -12.9879 -217.883 -8.95558 -225.151Z" fill="#7262DB"/>
<path d="M415.918 -47.849L478.766 65.5112C486.834 80.0632 501.291 88.7513 517.436 88.7513C533.581 88.7513 548.038 80.0632 556.106 65.5112L618.954 -47.849C627.031 -62.4135 627.015 -79.7938 618.91 -94.3459C610.834 -108.844 596.393 -117.503 580.284 -117.503L454.588 -117.503C438.479 -117.503 424.039 -108.844 415.962 -94.3459C411.902 -87.0574 409.874 -79.0588 409.874 -71.056C409.874 -63.0864 411.886 -55.1167 415.918 -47.849Z" fill="#7262DB"/>
<path d="M-8.95559 -47.849L53.8921 65.5112C61.9606 80.0633 76.4175 88.7514 92.5624 88.7514C108.707 88.7514 123.164 80.0633 131.233 65.5112L194.08 -47.849C202.157 -62.4135 202.141 -79.7938 194.037 -94.3459C185.96 -108.844 171.519 -117.503 155.41 -117.503L29.7147 -117.503C13.6058 -117.503 -0.835105 -108.844 -8.91158 -94.3459C-12.9718 -87.0575 -15 -79.0587 -15 -71.0559C-15 -63.0863 -12.9879 -55.1167 -8.95559 -47.849Z" fill="#7262DB"/>
</g>
<defs>
<filter id="filter0_d_13_19" x="54" y="0" width="1512" height="432" filterUnits="userSpaceOnUse" color-interpolation-filters="sRGB">
<feFlood flood-opacity="0" result="BackgroundImageFix"/>
<feColorMatrix in="SourceAlpha" type="matrix" values="0 0 0 0 0 0 0 0 0 0 0 0 0 0 0 0 0 0 127 0" result="hardAlpha"/>
<feOffset dy="25"/>
<feGaussianBlur stdDeviation="16.5"/>
<feColorMatrix type="matrix" values="0 0 0 0 0.423529 0 0 0 0 0.364706 0 0 0 0 0.827451 0 0 0 0.25 0"/>
<feBlend mode="normal" in2="BackgroundImageFix" result="effect1_dropShadow_13_19"/>
<feBlend mode="normal" in="SourceGraphic" in2="effect1_dropShadow_13_19" result="shape"/>
</filter>
</defs>
</svg>
