<svg width="64" height="64" viewBox="0 0 64 64" fill="none" xmlns="http://www.w3.org/2000/svg">
<rect width="64" height="64" rx="14" fill="#6C5DD3"/>
<path d="M51.3203 45.4414H47.8658C48.0446 44.8673 48.0725 44.2384 47.9134 43.6128L46.6477 38.7217C46.4158 37.8254 45.5018 37.2854 44.6045 37.5157L39.096 38.9274L35.3088 24.0346L39.2157 23.0409L41.5575 32.25C41.7861 33.1492 42.7008 33.6928 43.5993 33.4638C44.4986 33.2351 45.0418 32.3211 44.8132 31.4219L40.8364 15.7828C40.6153 14.9134 40.0684 14.1818 39.2971 13.7232C38.5258 13.2649 37.6227 13.1337 36.7523 13.3551L33.1797 14.2635V13.3594C33.1797 11.5071 31.6726 10 29.8203 10H25.7891C23.9368 10 22.4297 11.5071 22.4297 13.3594V16.7188H18.3984C16.5462 16.7188 15.0391 18.2259 15.0391 20.0781V45.4414H11.6797C10.7519 45.4414 10 46.1933 10 47.1211C10 48.0489 10.7519 48.8008 11.6797 48.8008H13.3594V51.3203C13.3594 52.2481 14.1113 53 15.0391 53C15.9668 53 16.7188 52.2481 16.7188 51.3203V48.8008H46.2812V51.3203C46.2812 52.2481 47.0332 53 47.9609 53C48.8887 53 49.6406 52.2481 49.6406 51.3203V48.8008H51.3203C52.2481 48.8008 53 48.0489 53 47.1211C53 46.1933 52.2481 45.4414 51.3203 45.4414ZM33.1797 29.2928L37.2861 45.4414H33.1797V29.2928ZM43.8152 41.1858L44.6593 44.4474L40.7524 45.4411L39.924 42.1827L43.8152 41.1858ZM37.5803 16.6108L38.3877 19.7852L34.4808 20.7789L33.6738 17.6042L37.5803 16.6108ZM22.4297 20.0781V23.3535H18.3984V20.0781H22.4297ZM18.3984 26.7129H22.4297V45.4414H18.3984V26.7129ZM25.7891 45.4414V13.3594H29.8203V45.4414H25.7891Z" fill="white"/>
</svg>
